#!OML:ASF I:\Actors\actors\Patient Classification 1\Patient 1\Session 1\Subject1.ASF
:FULLY-SPECIFIED
:DEGREES
528
root -0.516859 17.6477 7.96761 8.35198 -0.0450719 -7.99282
lowerback 10.7229 0.959537 6.8176
upperback -1.48366 2.2452 0.732329
thorax -7.38588 0.825018 -3.43918
lowerneck -17.8965 -1.05017 0.703262
upperneck 35.5768 -2.89753 2.80816
head 15.5851 -0.708156 0.54387
rclavicle -1.11319e-014 3.69739e-014
rhumerus -77.856 26.2011 -87.7591
rradius 111.438
rwrist -23.2923
rhand 55.3793 -22.6071
rfingers 7.12502
rthumb 72.9998 -725.183
lclavicle -1.11319e-014 3.69739e-014
lhumerus -85.4561 -29.9838 93.9319
lradius 107.124
lwrist 60.6197
lhand 10.249 -10.8739
lfingers 7.12502
lthumb 35.3625 15.5967
rfemur -5.42155 22.3003 24.48
rtibia 5.90953
rfoot -12.3452 -25.0564
rtoes 2.64244
lfemur 1.47712 -35.2509 -10.6122
ltibia -2.31787
lfoot -13.4248 44.7839
ltoes 3.32543
529
root -0.523344 17.6527 7.9789 8.53192 -0.0691273 -7.91795
lowerback 10.6421 1.05092 6.7357
upperback -1.58509 2.35233 0.702792
thorax -7.43875 0.875902 -3.4408
lowerneck -18.2153 -1.12192 0.634926
upperneck 35.3426 -3.00185 2.87171
head 15.551 -0.75155 0.560123
rclavicle 1.16289e-014 -9.93923e-015
rhumerus -79.1464 24.9302 -88.0266
rradius 111.876
rwrist -23.4625
rhand 55.7217 -22.3925
rfingers 7.12502
rthumb 73.1557 -723.966
lclavicle 1.16289e-014 -9.93923e-015
lhumerus -87.0774 -29.4092 94.7858
lradius 107.189
lwrist 59.5816
lhand 10.4931 -11.2409
lfingers 7.12502
lthumb 35.5939 15.1744
rfemur -5.6453 22.3156 24.3311
rtibia 5.97739
rfoot -12.417 -25.0282
rtoes 2.94192
lfemur 1.25123 -35.3189 -10.5445
ltibia -2.28401
lfoot -13.7644 44.8531
ltoes 3.93102
530
root -0.529504 17.6569 7.99034 8.69873 -0.148099 -7.83039
lowerback 10.5791 1.0934 6.61909
upperback -1.67823 2.38981 0.659854
thorax -7.50114 0.893915 -3.42649
lowerneck -18.5414 -1.14484 0.539727
upperneck 35.1421 -3.05974 3.02481
head 15.5375 -0.766235 0.627689
rclavicle -1.78906e-014 -1.70955e-014
rhumerus -79.8769 23.6743 -88.4921
rradius 111.031
rwrist -23.5232
rhand 56.4148 -20.9559
rfingers 7.12502
rthumb 73.4544 -720.444
lclavicle -1.78906e-014 -1.70955e-014
lhumerus -88.008 -28.4973 95.5117
lradius 106.197
lwrist 57.7093
lhand 10.797 -11.9686
lfingers 7.12502
lthumb 35.8819 14.3769
rfemur -5.8365 22.3023 24.1841
rtibia 6.03443
rfoot -12.4164 -24.9508
rtoes 2.86401
lfemur 1.13284 -35.3444 -10.5531
ltibia -2.33394
lfoot -13.8823 44.9618
ltoes 4.16056
531
root -0.535265 17.6602 7.99783 8.81974 -0.17772 -7.7765
lowerback 11.0539 1.11398 6.74264
upperback -2.07836 2.4765 0.447579
thorax -8.18533 0.88941 -3.76188
lowerneck -18.6416 -1.24517 0.443683
upperneck 35.1048 -3.35371 3.48695
head 15.5658 -0.835039 0.786078
rclavicle 1.56046e-014 5.1684e-015
rhumerus -80.5258 22.1509 -89.3146
rradius 109.274
rwrist -23.558
rhand 56.303 -20.7278
rfingers 7.12502
rthumb 73.4078 -720.558
lclavicle 1.56046e-014 5.1684e-015
lhumerus -88.7806 -27.7748 96.2586
lradius 104.303
lwrist 55.9467
lhand 11.3781 -13.3421
lfingers 7.12502
lthumb 36.4322 12.867
rfemur -5.95605 22.2677 24.1054
rtibia 6.03391
rfoot -12.3015 -24.9394
rtoes 2.26029
lfemur 1.04021 -35.3398 -10.5366
ltibia -2.36665
lfoot -13.8204 45.0286
ltoes 3.90859
532
root -0.539093 17.6594 8.00132 8.92373 -0.200848 -7.83581
lowerback 11.2692 1.12337 6.8604
upperback -2.24967 2.52195 0.323651
thorax -8.48189 0.886121 -3.98063
lowerneck -18.8959 -1.32781 0.350202
upperneck 34.8646 -3.61952 3.95912
head 15.5341 -0.891948 0.949569
rclavicle 1.33186e-014 -3.18055e-015
rhumerus -80.1704 20.8103 -89.9155
rradius 106.541
rwrist -22.7285
rhand 54.8424 -20.9146
rfingers 7.12502
rthumb 72.7449 -725.024
lclavicle 1.33186e-014 -3.18055e-015
lhumerus -88.3742 -27.0804 96.7226
lradius 101.558
lwrist 54.8478
lhand 9.2127 -13.3904
lfingers 7.12502
lthumb 34.3792 13.3084
rfemur -6.06864 22.2375 24.1485
rtibia 6.01563
rfoot -12.1613 -24.9153
rtoes 1.82967
lfemur 0.997731 -35.5176 -10.4363
ltibia -2.39927
lfoot -13.9784 45.2477
ltoes 3.98302
533
root -0.543103 17.6546 8.00314 9.05703 -0.235426 -8.01103
lowerback 11.3506 1.12818 7.00675
upperback -2.33483 2.55798 0.290624
thorax -8.61149 0.887695 -4.10983
lowerneck -19.3132 -1.37631 0.270201
upperneck 34.6595 -3.78584 4.28069
head 15.5512 -0.923932 1.06444
rclavicle 1.49089e-014 2.34566e-014
rhumerus -79.1053 19.8482 -90.4834
rradius 102.813
rwrist -20.8283
rhand 51.3899 -20.9066
rfingers 7.12502
rthumb 70.8338 -733.779
lclavicle 1.49089e-014 2.34566e-014
lhumerus -87.0235 -26.4716 96.8329
lradius 98.7184
lwrist 54.0939
lhand 5.95287 -11.6141
lfingers 7.12502
lthumb 31.2784 15.7339
rfemur -6.22646 22.2467 24.3015
rtibia 6.02626
rfoot -12.1602 -24.836
rtoes 1.97478
lfemur 0.953026 -35.827 -10.1897
ltibia -2.46665
lfoot -14.2901 45.5766
ltoes 4.3773
